<?xml version="1.0" encoding="UTF-8" standalone="no"?>
<svg
   xmlns:dc="http://purl.org/dc/elements/1.1/"
   xmlns:cc="http://creativecommons.org/ns#"
   xmlns:rdf="http://www.w3.org/1999/02/22-rdf-syntax-ns#"
   xmlns:svg="http://www.w3.org/2000/svg"
   xmlns="http://www.w3.org/2000/svg"
   xmlns:sodipodi="http://sodipodi.sourceforge.net/DTD/sodipodi-0.dtd"
   xmlns:inkscape="http://www.inkscape.org/namespaces/inkscape"
   viewBox="0 0 1024 1024"
   height="1024.0pt"
   width="1024.0pt"
   version="1.1"
   id="svg941"
   sodipodi:docname="Branches.svg"
   inkscape:version="0.92.2 (5c3e80d, 2017-08-06)">
  <metadata
     id="metadata947">
    <rdf:RDF>
      <cc:Work
         rdf:about="">
        <dc:format>image/svg+xml</dc:format>
        <dc:type
           rdf:resource="http://purl.org/dc/dcmitype/StillImage" />
        <dc:title></dc:title>
      </cc:Work>
    </rdf:RDF>
  </metadata>
  <defs
     id="defs945" />
  <sodipodi:namedview
     pagecolor="#ffffff"
     bordercolor="#666666"
     borderopacity="1"
     objecttolerance="10"
     gridtolerance="10"
     guidetolerance="10"
     inkscape:pageopacity="0"
     inkscape:pageshadow="2"
     inkscape:window-width="1920"
     inkscape:window-height="1017"
     id="namedview943"
     showgrid="false"
     inkscape:pagecheckerboard="true"
     inkscape:zoom="0.17285156"
     inkscape:cx="-257.44633"
     inkscape:cy="682.66667"
     inkscape:window-x="-8"
     inkscape:window-y="-8"
     inkscape:window-maximized="1"
     inkscape:current-layer="svg941" />
  <path
     d="M 0,0 H 1024 V 1024 H 0 Z"
     id="path937"
     style="opacity:0;fill:#fefefe"
     inkscape:connector-curvature="0" />
  <path
     d="M 500.09 53.56 C 509.28 52.43 519.36 52.34 528.26 55.16 C 541.73 58.83 553.76 67.80 562.03 78.93 C 569.35 89.28 574.08 102.24 573.72 115.01 C 573.74 169.67 573.75 224.40 573.72 279.06 C 573.69 281.62 574.22 283.19 576.07 284.96 C 601.81 310.55 627.41 336.25 653.07 361.93 C 666.17 375.17 679.74 387.91 692.74 401.25 C 706.19 414.80 719.97 428.05 733.09 441.93 C 747.44 456.23 761.74 470.60 776.13 484.86 C 784.47 492.54 792.21 500.79 800.30 508.71 C 803.34 511.68 805.92 515.06 808.99 518.00 C 820.84 529.12 827.36 545.82 826.62 562.00 C 826.60 654.00 826.60 746.00 826.62 838.00 C 826.95 849.26 823.89 860.70 818.37 870.49 C 810.24 884.90 796.14 895.53 780.21 899.83 C 772.58 902.21 763.97 901.90 756.04 901.50 C 742.04 899.74 728.75 893.23 718.96 883.03 C 709.48 873.59 703.43 861.07 701.56 847.85 C 701.02 842.18 701.17 836.68 701.15 831.00 C 701.16 760.67 701.15 690.33 701.16 620.00 C 701.24 613.77 701.03 607.47 700.23 601.28 C 698.48 592.92 695.59 583.64 689.99 577.01 C 683.61 570.07 676.82 563.48 670.15 556.81 C 654.64 540.37 638.26 524.74 622.43 508.61 C 617.87 504.15 613.23 499.79 608.89 495.11 C 597.33 483.52 585.68 472.02 574.21 460.36 C 573.47 464.79 573.77 469.44 573.73 474.00 C 573.74 616.00 573.73 758.00 573.73 900.00 C 573.70 904.88 573.87 909.78 573.57 914.65 C 572.56 925.68 568.63 936.33 562.39 945.47 C 557.60 952.40 551.38 957.77 544.42 962.43 C 537.71 966.92 529.69 969.60 521.86 971.37 C 514.99 972.32 507.93 972.26 501.04 971.52 C 488.03 969.09 475.73 963.09 466.45 953.55 C 456.53 943.81 450.25 930.73 448.53 916.96 C 448.18 912.62 448.25 908.32 448.25 904.00 C 448.26 760.67 448.25 617.33 448.25 474.00 C 448.20 469.59 448.44 465.13 448.05 460.74 C 445.17 462.34 443.30 464.69 440.98 466.98 C 429.87 478.19 418.68 489.33 407.56 500.55 C 401.26 507.24 394.85 513.84 388.30 520.30 C 374.15 534.50 360.14 548.79 345.92 562.92 C 339.37 569.92 331.19 576.35 327.20 585.12 C 323.44 593.13 321.19 602.13 321.41 611.00 C 321.43 686.67 321.39 762.33 321.43 838.00 C 321.69 845.86 320.02 853.82 317.36 861.19 C 313.03 871.66 307.32 881.14 298.19 888.11 C 287.39 896.43 273.74 901.90 260.00 901.76 C 242.97 902.18 225.94 895.12 214.10 882.89 C 204.02 871.51 197.59 857.23 196.50 842.01 C 196.46 749.71 196.50 657.32 196.48 565.00 C 196.52 560.94 196.24 556.58 197.04 552.59 C 198.70 542.79 202.21 532.32 208.46 524.47 C 219.75 511.32 233.17 499.39 244.77 486.69 C 290.20 440.85 335.88 395.22 381.43 349.42 C 384.46 346.44 387.28 343.28 390.18 340.19 C 409.00 321.23 427.62 302.47 446.53 283.58 C 447.79 282.29 448.26 280.85 448.25 279.07 C 448.26 224.38 448.24 169.68 448.26 114.99 C 448.06 102.92 451.93 90.76 458.77 80.84 C 468.18 66.65 483.38 56.72 500.09 53.56 Z"
     fill="#000000"
     id="path939" />
</svg>
