<?xml version="1.0" encoding="UTF-8" standalone="no"?>
<svg
   xmlns:dc="http://purl.org/dc/elements/1.1/"
   xmlns:cc="http://creativecommons.org/ns#"
   xmlns:rdf="http://www.w3.org/1999/02/22-rdf-syntax-ns#"
   xmlns:svg="http://www.w3.org/2000/svg"
   xmlns="http://www.w3.org/2000/svg"
   xmlns:sodipodi="http://sodipodi.sourceforge.net/DTD/sodipodi-0.dtd"
   xmlns:inkscape="http://www.inkscape.org/namespaces/inkscape"
   viewBox="0 0 1024 1024"
   height="1024.0pt"
   width="1024.0pt"
   version="1.1"
   id="svg49"
   sodipodi:docname="nucleus.svg"
   inkscape:version="0.92.2 (5c3e80d, 2017-08-06)">
  <metadata
     id="metadata55">
    <rdf:RDF>
      <cc:Work
         rdf:about="">
        <dc:format>image/svg+xml</dc:format>
        <dc:type
           rdf:resource="http://purl.org/dc/dcmitype/StillImage" />
        <dc:title></dc:title>
      </cc:Work>
    </rdf:RDF>
  </metadata>
  <defs
     id="defs53" />
  <sodipodi:namedview
     pagecolor="#ffffff"
     bordercolor="#666666"
     borderopacity="1"
     objecttolerance="10"
     gridtolerance="10"
     guidetolerance="10"
     inkscape:pageopacity="0"
     inkscape:pageshadow="2"
     inkscape:window-width="1920"
     inkscape:window-height="1017"
     id="namedview51"
     showgrid="false"
     inkscape:pagecheckerboard="true"
     inkscape:zoom="0.34570312"
     inkscape:cx="603.18625"
     inkscape:cy="713.94531"
     inkscape:window-x="-8"
     inkscape:window-y="-8"
     inkscape:window-maximized="1"
     inkscape:current-layer="svg49" />
  <path
     d="M 0,0 H 1024 V 1024 H 0 Z"
     id="path43"
     inkscape:connector-curvature="0"
     style="display:none;fill:#fefefe" />
  <path
     style="opacity:1;fill:#000000;stroke-width:1.33333337"
     d="M 683.97852 175.81836 C 670.62786 175.78919 657.26927 176.15417 643.96094 176.8125 C 618.76094 179.14583 593.74675 182.50698 569.08008 188.32031 C 483.74674 207.62698 403.77331 249.48062 339.30664 308.64062 C 311.91997 333.98729 286.98609 361.77414 265.74609 392.49414 C 215.57276 464.10748 184.57313 548.81385 176.45312 635.86719 C 174.31979 654.42719 174.73336 673.34667 174.69336 692 C 174.72003 708.70667 175.37242 725.37325 177.73242 741.91992 C 187.95909 831.70659 222.98729 918.24049 277.64062 990.17383 C 297.65396 1016.7205 320.45409 1040.7073 345.10742 1062.9473 C 415.41409 1125.4006 503.28 1167.6671 596 1183.4004 C 610.88 1186.1204 625.98573 1187.7472 641.03906 1189.1738 C 647.6524 1190.2805 654.53432 1190.2001 661.34766 1190.4668 C 676.00099 1190.7601 690.68065 1190.7867 705.33398 1190.3867 C 717.81398 1190.2534 730.28003 1188.3467 742.69336 1187.0801 C 819.65336 1177.9067 894.46732 1150.747 959.33398 1108.3203 C 983.20065 1092.8003 1005.6803 1075.2006 1026.627 1055.9473 C 1039.667 1043.2406 1052.88 1030.5467 1064.6934 1016.6934 C 1134.9867 936.34669 1178.7874 833.57383 1187.7207 727.17383 C 1188.6007 718.61383 1190.106 709.94732 1189.9727 701.33398 C 1190.0793 687.32065 1190.1865 673.29263 1189.8398 659.2793 C 1188.1198 643.17263 1186.8932 627.06734 1184.5332 611.02734 C 1172.6665 527.40067 1139.281 446.88091 1088.6543 379.26758 C 1067.201 350.41424 1042.4942 324.3062 1015.5742 300.51953 C 941.88088 236.13286 849.38612 193.87987 752.43945 180.5332 C 737.71945 178.62654 722.83966 176.56031 707.98633 176.32031 C 699.99633 175.99531 691.98891 175.83586 683.97852 175.81836 z M 684.48242 343.13086 C 692.69076 343.11253 700.88599 343.35297 708.97266 344.29297 C 767.58599 348.7463 824.98706 369.17286 873.40039 402.51953 C 925.64039 438.3462 967.81388 489.29268 992.56055 547.66602 C 1007.6672 582.15935 1016.4 619.05354 1019.3066 656.54688 C 1020.0133 673.37354 1020.0136 690.41323 1019.2402 707.22656 C 1015.9602 747.4399 1005.734 786.99961 988.7207 823.59961 C 963.4807 878.09294 923.46633 925.4932 873.98633 959.5332 C 824.85299 993.4532 766.26763 1014.2926 706.6543 1018.2793 C 695.26763 1019.8793 683.49333 1019.1076 672 1019.2676 C 622.02667 1017.5609 572.55906 1005.0929 528.03906 982.21289 C 457.17239 946.26622 400.18711 884.6399 369.78711 811.22656 C 355.94711 777.97323 347.56036 742.62576 344.70703 706.73242 C 344.22703 693.71909 342.87948 681.06701 344.13281 668.01367 C 347.06615 583.12034 383.69294 499.85294 444.59961 440.59961 C 483.93294 401.35961 533.58752 372.33344 586.88086 356.77344 C 610.70753 349.66677 635.21325 345.7862 659.91992 343.51953 C 668.05326 343.4262 676.27409 343.14919 684.48242 343.13086 z "
     transform="scale(0.74999998)"
     id="path45" />
</svg>
