<?xml version="1.0" encoding="UTF-8" standalone="no"?>
<svg
   xmlns:dc="http://purl.org/dc/elements/1.1/"
   xmlns:cc="http://creativecommons.org/ns#"
   xmlns:rdf="http://www.w3.org/1999/02/22-rdf-syntax-ns#"
   xmlns:svg="http://www.w3.org/2000/svg"
   xmlns="http://www.w3.org/2000/svg"
   xmlns:sodipodi="http://sodipodi.sourceforge.net/DTD/sodipodi-0.dtd"
   xmlns:inkscape="http://www.inkscape.org/namespaces/inkscape"
   viewBox="0 0 1024 1024"
   height="1024.0pt"
   width="1024.0pt"
   version="1.1"
   id="svg10591"
   sodipodi:docname="Add Content.svg"
   inkscape:version="0.92.2 (5c3e80d, 2017-08-06)">
  <metadata
     id="metadata10597">
    <rdf:RDF>
      <cc:Work
         rdf:about="">
        <dc:format>image/svg+xml</dc:format>
        <dc:type
           rdf:resource="http://purl.org/dc/dcmitype/StillImage" />
        <dc:title></dc:title>
      </cc:Work>
    </rdf:RDF>
  </metadata>
  <defs
     id="defs10595" />
  <sodipodi:namedview
     pagecolor="#ffffff"
     bordercolor="#666666"
     borderopacity="1"
     objecttolerance="10"
     gridtolerance="10"
     guidetolerance="10"
     inkscape:pageopacity="0"
     inkscape:pageshadow="2"
     inkscape:window-width="1920"
     inkscape:window-height="1017"
     id="namedview10593"
     showgrid="false"
     inkscape:pagecheckerboard="true"
     inkscape:zoom="0.48889805"
     inkscape:cx="1119.9461"
     inkscape:cy="836.12099"
     inkscape:window-x="-8"
     inkscape:window-y="-8"
     inkscape:window-maximized="1"
     inkscape:current-layer="svg10591" />
  <path
     d="M 0.00 0.00 L 98.53 0.00 C 96.04 0.37 93.56 0.70 91.06 0.97 C 68.55 3.71 47.25 14.20 31.20 30.18 C 16.12 44.96 5.67 64.21 1.90 85.01 C 0.77 89.44 1.04 93.99 0.00 98.42 L 0.00 0.00 Z"
     fill="#fefefe"
     id="path10579"
     style="opacity:0" />
  <path
     d="M 98.53 0.00 L 926.58 0.00 C 929.30 0.66 932.00 0.87 934.77 1.13 C 955.02 3.89 974.23 12.96 989.44 26.58 C 1004.87 40.31 1016.13 58.69 1021.23 78.71 C 1022.38 83.28 1022.89 87.97 1024.00 92.56 L 1024.00 931.58 C 1023.24 934.26 1022.97 936.94 1022.59 939.68 C 1018.68 959.58 1008.98 978.26 994.78 992.75 C 979.18 1008.88 958.24 1019.79 936.03 1023.13 C 934.49 1023.41 932.96 1023.72 931.42 1024.00 L 92.37 1024.00 C 89.54 1023.20 86.70 1022.74 83.80 1022.32 C 57.53 1017.21 33.82 1001.33 18.63 979.37 C 10.92 968.28 5.38 955.66 2.49 942.47 C 1.29 937.14 0.86 931.77 0.00 926.38 L 0.00 98.42 C 1.04 93.99 0.77 89.44 1.90 85.01 C 5.67 64.21 16.12 44.96 31.20 30.18 C 47.25 14.20 68.55 3.71 91.06 0.97 C 93.56 0.70 96.04 0.37 98.53 0.00 Z"
     fill="#000000"
     id="path10581" />
  <path
     d="M 926.58 0.00 L 1024.00 0.00 L 1024.00 92.56 C 1022.89 87.97 1022.38 83.28 1021.23 78.71 C 1016.13 58.69 1004.87 40.31 989.44 26.58 C 974.23 12.96 955.02 3.89 934.77 1.13 C 932.00 0.87 929.30 0.66 926.58 0.00 Z"
     fill="#fefefe"
     id="path10583"
     style="opacity:0" />
  <path
     d="M 518.96 184.87 C 531.73 186.94 543.71 194.18 551.41 204.57 C 555.33 209.80 557.88 215.78 559.91 221.96 C 561.69 228.22 561.41 235.52 561.41 241.99 C 561.41 315.52 561.40 389.05 561.41 462.57 C 637.60 462.61 713.84 462.56 790.03 462.59 C 797.82 462.69 805.08 464.88 812.19 467.90 C 814.86 469.05 817.15 470.76 819.36 472.62 C 825.17 477.29 830.80 483.07 834.14 489.80 C 844.15 509.13 840.42 534.40 824.33 549.32 C 818.93 554.03 812.75 558.54 805.90 560.84 C 800.13 562.80 794.14 563.87 788.03 563.58 C 715.69 563.52 643.34 563.59 571.00 563.54 C 567.93 563.64 564.33 563.07 561.42 564.19 C 561.38 639.78 561.44 715.40 561.40 790.99 C 561.57 804.37 555.24 816.71 546.45 826.44 C 543.47 829.17 539.90 831.28 536.62 833.62 C 520.13 843.66 497.19 842.89 481.65 831.31 C 477.23 827.83 472.72 823.17 469.27 818.74 C 464.47 811.14 460.80 802.05 460.44 793.00 C 460.46 717.66 460.43 642.32 460.45 566.99 C 460.40 565.97 460.27 564.95 460.07 563.93 C 456.51 563.22 452.63 563.61 449.00 563.56 C 376.33 563.56 303.67 563.55 231.00 563.56 C 221.93 563.25 212.85 559.65 205.33 554.68 C 198.52 549.42 192.28 543.23 188.64 535.32 C 183.77 525.94 182.56 515.43 183.96 505.03 C 185.12 498.54 187.62 492.48 190.75 486.71 C 196.34 477.97 204.05 470.57 213.85 466.80 C 220.14 463.53 226.99 462.63 234.00 462.59 C 309.23 462.56 384.57 462.62 459.78 462.56 C 460.98 459.72 460.33 456.03 460.46 452.99 C 460.41 380.66 460.48 308.31 460.42 235.98 C 460.12 229.16 461.44 222.26 464.00 215.95 C 465.96 211.07 468.91 207.10 471.78 202.75 C 473.09 200.74 474.81 199.14 476.70 197.69 C 480.81 194.60 484.41 191.29 489.15 189.14 C 498.53 184.49 508.69 183.73 518.96 184.87 Z"
     fill="#fefefe"
     id="path10585" />
  <path
     d="M 0.00 926.38 C 0.86 931.77 1.29 937.14 2.49 942.47 C 5.38 955.66 10.92 968.28 18.63 979.37 C 33.82 1001.33 57.53 1017.21 83.80 1022.32 C 86.70 1022.74 89.54 1023.20 92.37 1024.00 L 0.00 1024.00 L 0.00 926.38 Z"
     fill="#fefefe"
     id="path10587"
     style="opacity:0" />
  <path
     d="M 1024.00 931.58 L 1024.00 1024.00 L 931.42 1024.00 C 932.96 1023.72 934.49 1023.41 936.03 1023.13 C 958.24 1019.79 979.18 1008.88 994.78 992.75 C 1008.98 978.26 1018.68 959.58 1022.59 939.68 C 1022.97 936.94 1023.24 934.26 1024.00 931.58 Z"
     fill="#fefefe"
     id="path10589"
     style="opacity:0" />
</svg>
