<?xml version="1.0" encoding="UTF-8" standalone="no"?>
<svg
   xmlns:dc="http://purl.org/dc/elements/1.1/"
   xmlns:cc="http://creativecommons.org/ns#"
   xmlns:rdf="http://www.w3.org/1999/02/22-rdf-syntax-ns#"
   xmlns:svg="http://www.w3.org/2000/svg"
   xmlns="http://www.w3.org/2000/svg"
   xmlns:sodipodi="http://sodipodi.sourceforge.net/DTD/sodipodi-0.dtd"
   xmlns:inkscape="http://www.inkscape.org/namespaces/inkscape"
   viewBox="0 0 1024 1024"
   height="1024.0pt"
   width="1024.0pt"
   version="1.1"
   id="svg915"
   sodipodi:docname="wall.svg"
   inkscape:version="0.92.2 (5c3e80d, 2017-08-06)">
  <metadata
     id="metadata921">
    <rdf:RDF>
      <cc:Work
         rdf:about="">
        <dc:format>image/svg+xml</dc:format>
        <dc:type
           rdf:resource="http://purl.org/dc/dcmitype/StillImage" />
        <dc:title></dc:title>
      </cc:Work>
    </rdf:RDF>
  </metadata>
  <defs
     id="defs919" />
  <sodipodi:namedview
     pagecolor="#ffffff"
     bordercolor="#666666"
     borderopacity="1"
     objecttolerance="10"
     gridtolerance="10"
     guidetolerance="10"
     inkscape:pageopacity="0"
     inkscape:pageshadow="2"
     inkscape:window-width="1920"
     inkscape:window-height="1017"
     id="namedview917"
     showgrid="false"
     inkscape:pagecheckerboard="true"
     inkscape:zoom="0.35355339"
     inkscape:cx="174.83841"
     inkscape:cy="1005.6031"
     inkscape:window-x="-8"
     inkscape:window-y="-8"
     inkscape:window-maximized="1"
     inkscape:current-layer="svg915" />
  <path
     d="M 0,0 H 1024 V 1024 H 0 Z"
     id="path901"
     inkscape:connector-curvature="0"
     style="display:none;fill:#fefefe" />
  <path
     d="M 166.00 201.45 C 193.73 201.48 221.46 201.42 249.18 201.48 C 249.36 243.23 249.25 285.01 249.23 326.76 C 221.16 326.88 193.08 326.79 165.01 326.81 C 159.15 326.90 153.77 326.19 148.19 324.45 C 127.41 318.56 110.71 301.41 105.18 280.56 C 102.46 272.52 102.78 264.35 103.31 255.96 C 105.50 241.56 112.43 228.04 123.05 218.04 C 134.51 207.60 150.40 200.89 166.00 201.45 Z"
     fill="#000000"
     id="path903" />
  <path
     d="M 300.92 201.43 C 485.62 201.48 670.33 201.45 855.03 201.45 C 877.84 200.22 900.96 213.11 911.90 233.18 C 916.71 241.89 920.07 251.98 920.11 262.00 C 920.91 279.38 913.67 297.09 901.10 309.10 C 891.73 318.40 879.43 324.31 866.43 326.39 C 861.35 326.97 856.12 326.79 851.00 326.82 C 672.00 326.81 493.00 326.82 314.00 326.82 C 308.92 326.81 303.85 326.86 298.77 326.76 C 298.68 285.75 298.80 244.72 298.71 203.71 C 298.66 202.10 299.29 201.35 300.92 201.43 Z"
     fill="#000000"
     id="path905" />
  <path
     d="M 169.01 449.67 C 195.75 449.74 222.50 449.60 249.24 449.74 C 249.29 491.62 249.26 533.50 249.26 575.38 C 221.84 575.53 194.42 575.39 167.00 575.46 C 151.13 575.80 135.54 569.73 123.68 559.26 C 112.67 549.32 105.65 535.64 103.34 521.05 C 102.76 512.42 102.46 504.05 105.27 495.77 C 110.42 476.71 125.31 460.49 143.85 453.74 C 151.80 450.70 160.53 449.52 169.01 449.67 Z"
     fill="#000000"
     id="path907" />
  <path
     d="M 298.77 449.73 C 303.84 449.64 308.93 449.68 314.00 449.68 C 492.67 449.68 671.33 449.68 850.00 449.68 C 854.94 449.72 859.60 449.41 864.49 450.19 C 878.00 451.70 891.00 457.75 900.72 467.28 C 910.76 476.74 917.15 489.46 919.55 502.99 C 920.50 511.59 920.56 520.96 917.86 529.27 C 913.38 545.49 902.43 559.67 887.52 567.59 C 877.63 573.09 866.31 575.83 855.00 575.46 C 675.00 575.42 495.00 575.45 315.00 575.44 C 309.59 575.43 304.16 575.50 298.76 575.37 C 298.74 533.49 298.70 491.61 298.77 449.73 Z"
     fill="#000000"
     id="path909" />
  <path
     d="M 165.95 698.28 C 193.71 698.31 221.46 698.22 249.22 698.33 C 249.32 740.01 249.24 781.70 249.26 823.38 C 220.51 823.52 191.75 823.42 163.00 823.43 C 136.63 823.32 112.72 803.91 105.56 778.79 C 102.58 770.38 102.69 761.75 103.30 752.96 C 105.95 735.32 115.85 718.55 130.93 708.77 C 141.15 702.04 153.66 697.94 165.95 698.28 Z"
     fill="#000000"
     id="path911" />
  <path
     d="M 298.80 698.33 C 484.52 698.20 670.31 698.32 856.04 698.27 C 876.38 697.56 896.83 707.91 908.45 724.60 C 915.61 734.82 920.21 747.46 920.12 760.00 C 920.64 774.92 914.91 790.02 905.41 801.43 C 895.36 813.19 881.03 821.49 865.55 823.18 C 861.07 823.59 856.50 823.41 852.00 823.45 C 672.67 823.44 493.33 823.45 314.00 823.44 C 308.92 823.44 303.83 823.49 298.75 823.37 C 298.77 781.70 298.67 740.01 298.80 698.33 Z"
     fill="#000000"
     id="path913" />
  <rect
     style="opacity:1;stroke-width:0.75"
     id="rect923"
     width="3.3898304"
     height="3.6271186"
     x="298.71286"
     y="201.42795" />
</svg>
